<?xml version="1.0" encoding="UTF-8" standalone="no"?>
<!-- Created with Inkscape (http://www.inkscape.org/) -->

<svg
   xmlns:dc="http://purl.org/dc/elements/1.1/"
   xmlns:cc="http://creativecommons.org/ns#"
   xmlns:rdf="http://www.w3.org/1999/02/22-rdf-syntax-ns#"
   xmlns:svg="http://www.w3.org/2000/svg"
   xmlns="http://www.w3.org/2000/svg"
   version="1.1"
   width="320"
   height="320"
   id="svg2"
   xml:space="preserve"><metadata
     id="metadata8"><rdf:RDF><cc:Work
         rdf:about=""><dc:format>image/svg+xml</dc:format><dc:type
           rdf:resource="http://purl.org/dc/dcmitype/StillImage" /><dc:title></dc:title></cc:Work></rdf:RDF></metadata><defs
     id="defs6"><clipPath
       id="clipPath34"><path
         d="m 0,595.28 841.89,0 L 841.89,0 0,0 0,595.28 z"
         id="path36" /></clipPath></defs><g
     transform="matrix(1.25,0,0,-1.25,-419.35894,556.2026)"
     id="g10"><g
       transform="matrix(0.86902654,0,0,0.86902654,92.076723,41.513429)"
       id="g3045"><path
         d="m 446.334,463.8296 86.378,-86.375 0,86.796 -86.378,-0.421 z"
         id="path16"
         style="fill:#ffffff;fill-opacity:1;fill-rule:nonzero;stroke:none" /><path
         d="m 472.1348,351.2998 61.002,-60.999 0,-36.97 -159.82,0 98.818,97.969 z"
         id="path20"
         style="fill:#ffffff;fill-opacity:1;fill-rule:nonzero;stroke:none" /><path
         d="m 321.6367,307.5508 97.374,97.37 -59.33,59.333 -38.044,0 0,-156.703 z"
         id="path24"
         style="fill:#ffffff;fill-opacity:1;fill-rule:nonzero;stroke:none" /><path
         d="m 336.8301,169.6709 0,36.995 -14.449,0 0,13.192 45.02,0 0,-13.192 -14.449,0 0,-36.995 -16.122,0 z"
         id="path28"
         style="fill:#ffffff;fill-opacity:1;fill-rule:nonzero;stroke:none" /><path
         d="m 388.6299,198.29 7.317,0 c 2.564,0 4.338,0.346 5.317,1.039 0.975,0.697 1.463,1.91 1.463,3.637 0,1.774 -0.488,3.01 -1.463,3.704 -0.979,0.693 -2.887,1.042 -5.728,1.042 l -6.906,0 0,-9.422 z m -16.612,-28.619 0,50.183 24.012,0 c 7.525,0 12.897,-1.121 16.113,-3.37 3.218,-2.246 4.828,-5.94 4.828,-11.072 0,-3.066 -0.662,-5.61 -1.981,-7.632 -1.318,-2.021 -3.354,-3.624 -6.104,-4.805 2.798,-0.59 4.835,-1.755 6.104,-3.492 1.278,-1.736 1.958,-4.286 2.047,-7.65 l 0.276,-6.982 c 0,-0.044 0.009,-0.102 0.035,-0.171 0.066,-1.999 0.548,-3.041 1.434,-3.134 l 0,-1.875 -16.273,0 c -0.298,1.204 -0.523,2.256 -0.672,3.152 -0.149,0.897 -0.225,1.597 -0.225,2.097 l 0,5.009 c 0,2.588 -0.513,4.413 -1.53,5.465 -1.023,1.061 -2.791,1.586 -5.309,1.586 l -6.843,0 0,-17.309 -15.912,0 z"
         id="path40"
         style="fill:#ffffff;fill-opacity:1;fill-rule:nonzero;stroke:none" /><path
         d="m 439.6875,186.8408 10.129,0 -5.016,17.377 -5.113,-17.377 z m -20.734,-17.17 17.665,50.184 16.331,0 17.661,-50.184 -15.991,0 -1.876,6.631 -15.99,0 -1.941,-6.631 -15.859,0 z"
         id="path44"
         style="fill:#ffffff;fill-opacity:1;fill-rule:nonzero;stroke:none" /><path
         d="m 488.4297,169.6709 -14.588,0 0,50.187 19.635,0 6.951,-25.042 c 0.092,-0.339 0.272,-1.12 0.545,-2.335 0.271,-1.214 0.658,-2.886 1.159,-5.025 0.317,1.679 0.611,3.153 0.884,4.416 0.272,1.258 0.514,2.205 0.719,2.845 l 7.119,25.141 19.599,0 0,-50.187 -14.591,0 0.136,24.7 c 0,1.502 0.006,2.959 0.02,4.379 0.012,1.422 0.031,2.892 0.053,4.413 -0.545,-2.589 -1.207,-5.418 -1.98,-8.487 l -0.101,-0.438 -6.201,-24.567 -11.249,0 -6.268,24.02 c -0.295,1.092 -0.59,2.337 -0.888,3.751 -0.294,1.403 -0.681,3.313 -1.156,5.721 0.066,-2.158 0.12,-4.011 0.151,-5.554 0.035,-1.542 0.051,-2.785 0.051,-3.709 l 0,-24.229 z"
         id="path48"
         style="fill:#ffffff;fill-opacity:1;fill-rule:nonzero;stroke:none" /></g></g></svg>